<?xml version="1.0" encoding="UTF-8" standalone="no"?>
<!DOCTYPE svg PUBLIC "-//W3C//DTD SVG 1.1//EN" "http://www.w3.org/Graphics/SVG/1.1/DTD/svg11.dtd">
<svg width="100%" height="100%" viewBox="0 0 750 750" version="1.1" xmlns="http://www.w3.org/2000/svg" xmlns:xlink="http://www.w3.org/1999/xlink" xml:space="preserve" xmlns:serif="http://www.serif.com/" style="fill-rule:evenodd;clip-rule:evenodd;stroke-linejoin:round;stroke-miterlimit:2;">
    <g id="Artboard1" transform="matrix(0.844595,0,0,0.929368,-54.8986,-109.665)">
        <g transform="matrix(1.184,0,0,1.076,-97.8918,-30.385)">
            <path d="M316.313,187.201C323.475,186.49 331.069,186.943 338.266,186.958L377.443,187L505.898,186.991L646.568,186.955L685.541,186.921C694.582,186.86 703.812,186.405 712.815,187.273C721.508,188.111 730.649,191.469 737.441,197.016C748.11,205.727 754.313,217.571 755.623,231.222C756.383,239.148 756.006,247.364 756.002,255.333L755.995,295.392L755.966,424.159L755.969,537.967L756.017,572.928C756.025,580.586 756.368,588.414 755.506,596.03C754.427,605.544 750.948,613.929 744.789,621.295C744.256,621.941 743.707,622.573 743.142,623.192C742.577,623.811 741.997,624.415 741.402,625.004C740.807,625.594 740.198,626.169 739.575,626.729C738.952,627.288 738.315,627.832 737.665,628.36C737.014,628.888 736.351,629.4 735.676,629.895C735,630.39 734.312,630.868 733.613,631.329C732.914,631.79 732.203,632.233 731.482,632.659C730.761,633.085 730.029,633.493 729.287,633.882C728.546,634.271 727.795,634.642 727.035,634.994C726.275,635.347 725.507,635.68 724.73,635.994C723.953,636.308 723.169,636.603 722.378,636.878C721.587,637.153 720.79,637.408 719.986,637.644C719.182,637.879 718.373,638.095 717.558,638.29C716.743,638.485 715.924,638.661 715.101,638.816C714.278,638.971 713.451,639.105 712.622,639.219C711.792,639.332 710.96,639.425 710.125,639.498L438.25,639.388L359.998,639.367C344.8,639.433 328.897,640.784 313.803,638.918C303.822,637.685 295.349,634.235 287.532,627.873C277.54,619.742 271.869,608.42 270.652,595.649C269.42,582.716 270.977,569.329 270.754,556.323C270.395,535.487 270.766,514.739 270.851,493.912L270.882,411.681L270.839,285.318L270.8,253.065C270.713,244.982 270.151,236.585 271.035,228.539C272.012,219.642 275.334,211.59 281.144,204.75C290.111,194.193 302.621,188.379 316.313,187.201ZM587.75,203.101L549.001,203.086C540.062,203.087 531.065,202.864 522.145,203.527C522.105,216.626 521.654,229.935 522.497,243L648.316,242.95C661.571,242.973 674.819,242.643 688.076,242.754C693.524,242.8 699.183,242.587 704.604,243.104C706.574,243.292 708.281,243.545 709.753,244.987C711.594,246.79 712.373,249.494 712.294,252.021C712.236,253.838 711.701,255.424 710.318,256.649C707.65,259.015 703.37,259.524 699.934,259.774C681.928,261.082 663.355,259.059 645.259,259.07L592.044,259.224C583.879,259.23 575.249,259.801 567.133,259.109C567.685,266.728 566.872,274.368 567.151,281.998L660.539,281.949C668.973,281.967 677.407,281.933 685.84,281.846C691.244,281.777 696.895,281.348 702.263,281.883C705.248,282.18 708.468,282.693 710.671,284.938C711.901,286.191 712.574,287.849 712.471,289.609C712.319,292.185 710.828,294.325 708.879,295.919C706.529,297.844 703.297,297.893 700.39,298.075C687.319,298.893 673.836,297.913 660.72,297.921L567.332,297.995C567.243,304.435 568.445,314.381 563.368,319.106C558.358,323.768 547.555,322.503 541.098,322.5C541.21,329.828 542.964,341.767 537.475,347.52C533.806,351.365 527.947,352.783 523.049,354.454C523.111,361.087 525.039,374.351 520.288,379.276C518.353,381.282 515.503,381.97 512.794,381.938C510.495,381.912 508.387,381.168 506.819,379.444C501.754,373.876 504.072,361.431 503.97,354.455C498.095,352.846 491.617,351.16 488.381,345.45C485.109,339.675 486.055,329.077 486.887,322.567C480.157,322.37 468.282,324.202 463.347,318.679C459.111,313.939 460.084,304.477 460.134,298.462C447.257,297.403 433.933,298.017 421.002,298.004L352.867,297.957L333.165,297.957C328.65,297.982 323.645,298.417 319.196,297.639C317.561,297.353 316.101,296.328 315.023,295.079C314.836,294.865 314.661,294.642 314.497,294.41C314.333,294.178 314.181,293.939 314.041,293.692C313.9,293.445 313.773,293.191 313.658,292.932C313.543,292.672 313.441,292.407 313.352,292.137C313.264,291.868 313.189,291.594 313.128,291.317C313.067,291.04 313.019,290.76 312.985,290.478C312.952,290.196 312.932,289.913 312.927,289.629C312.922,289.345 312.931,289.061 312.954,288.778C313.118,286.823 314.059,284.99 315.654,283.825C317.678,282.346 320.322,282.155 322.745,281.997C339.27,280.918 358.302,281.984 375.135,281.991C403.515,282.003 431.995,281.438 460.367,282.021C459.778,274.473 460.075,266.755 460.081,259.182C451.342,259.809 442.485,259.524 433.726,259.542L394.208,259.778L348.821,259.996C340.888,260.02 332.643,260.497 324.739,259.952C322.041,259.766 318.207,259.414 316.129,257.541C314.485,256.058 313.683,253.651 313.702,251.478C313.718,249.575 314.407,247.939 315.843,246.663C318.443,244.356 322.029,243.721 325.376,243.439C333.59,242.745 341.965,243.334 350.202,243.371L390.889,243.209L465.465,243.023C479.026,243.013 492.696,242.668 506.245,243.117C506.623,229.95 507.1,217.022 505.892,203.875C489.659,202.627 473.291,203.096 457.018,203.093L381.914,203.102L339.78,203.202C333.865,203.197 327.162,202.384 321.34,203.232C311.767,203.454 303.247,206.443 296.533,213.469C292.34,217.856 288.29,224.462 287.468,230.537C285.506,245.043 286.641,260.158 286.753,274.764L286.881,340.707L286.853,481.532C286.874,505.253 286.321,529.15 287.036,552.847C287.089,554.596 287.289,556.269 287.507,558.001C287.56,558.416 287.599,558.833 287.646,559.249L426.734,559.175C444.651,559.108 462.6,558.511 480.512,558.843C486.917,558.962 493.456,558.858 499.828,559.542C488.615,555.299 432.181,536.025 427.121,530.081C424.567,521.988 426.018,502.426 425.831,492.75C425.443,472.676 423.919,452.019 425.132,431.985C425.357,428.278 425.839,425.207 427.262,421.75C441.001,413.952 462.913,407.69 478.081,402.173C489.869,397.885 501.632,392.342 513.834,389.393C523.141,391.625 596.253,418.87 599.539,422.361C602.777,433.501 601.024,469.827 601.01,483.547C600.999,496.051 601.708,508.919 600.97,521.377C600.814,524.005 600.499,527.565 599.329,529.91C597.458,533.663 534.773,556.576 526.538,559.603C551.895,557.649 577.575,560.419 602.952,558.919C612.2,551.889 618.722,540.788 628.736,535.11C633.228,532.564 638.566,531.202 643.666,530.621C652.992,529.558 662.763,530.346 672.154,530.327L739.989,530.441L740.038,321.818L740.074,263.203C740.087,253.088 741.042,242.092 739.493,232.115C738.331,224.631 733.979,217.376 728.7,212.048C724.178,207.484 718.489,205.172 712.257,204.065C699.791,201.85 682.827,203.082 669.824,203.087L587.75,203.101ZM476.841,305.65C491.161,305.904 505.482,305.977 519.804,305.87C530.197,305.886 540.679,306.235 551.052,305.555C550.195,290.357 551.213,274.801 550.947,259.541C542.684,258.777 534.18,259.151 525.88,259.143C509.404,259.126 492.881,259.376 476.411,259.076C475.631,274.414 475.645,290.339 476.841,305.65ZM524.99,337.022C524.366,332.239 525.228,327.479 524.678,322.731L523.945,322.195C516.985,322.649 509.954,322.452 502.981,322.417C502.939,325.669 501.978,334.616 503.635,337.032L504.375,337.082L524.99,337.022ZM583.321,440.951C563.025,449.083 542.198,455.898 521.946,464.119C521.834,474.643 520.499,538.118 522.423,542.7L523.511,543.041L560.64,528.411C568.562,525.306 576.695,521.737 584.934,519.595C585.006,509.668 586.034,445.167 584.48,441.048L583.321,440.951ZM286.998,576.062C286.393,588.588 286.677,602.547 295.553,612.416C302.303,619.92 311.215,623.022 321.115,623.442C342.759,624.36 364.833,623.379 386.515,623.255L609.768,623.284L676.502,623.296C687.717,623.35 700.564,624.759 711.558,623.132C718.246,622.143 723.967,618.798 728.699,614.049C740.288,602.419 740.195,586.601 740.118,571.251C740.076,562.993 739.896,554.721 740.023,546.465C728.27,545.505 716.148,546.068 704.348,546.064L643.515,546.198C643.356,546.226 643.197,546.253 643.039,546.284C629.287,548.989 621.767,571.605 603.592,575.011C592.8,577.034 580.931,575.708 569.974,575.601L524.629,575.538L375.849,575.534C346.221,575.515 316.597,574.746 286.998,576.062ZM456.556,428.468L491.789,441.624C498.964,444.302 506.184,447.49 513.608,449.411C532.508,442.308 551.593,435.502 570.304,427.928C563.4,425.297 516.678,406.896 513.714,407.043L476.33,420.696C469.762,423.147 462.849,425.393 456.556,428.468ZM505.232,464.19C491.938,459.211 478.808,453.808 465.49,448.893C458.58,446.343 448.178,443.545 442.161,440.333C440.007,466.605 442.443,493.536 441.918,519.907C452.108,524.01 462.347,527.986 472.635,531.835C480.761,534.796 499.055,540.1 505.566,544.557C505.828,517.83 506.221,490.897 505.232,464.19Z" style="fill:currentColor;fill-rule:nonzero;"/>
        </g>
        <g transform="matrix(1.184,0,0,1.076,-97.8918,-30.385)">
            <path d="M684.45,563.29C684.85,563.219 685.252,563.159 685.655,563.108C686.058,563.057 686.462,563.017 686.867,562.986C687.272,562.955 687.678,562.934 688.084,562.923C688.49,562.912 688.896,562.912 689.302,562.921C689.709,562.93 690.115,562.949 690.52,562.978C690.925,563.007 691.329,563.047 691.732,563.096C692.135,563.145 692.537,563.204 692.938,563.273C693.339,563.342 693.737,563.42 694.133,563.509C694.53,563.598 694.924,563.696 695.316,563.804C695.707,563.912 696.096,564.029 696.482,564.156C696.868,564.283 697.25,564.42 697.629,564.566C698.008,564.712 698.384,564.867 698.755,565.032C699.127,565.196 699.494,565.369 699.857,565.552C700.22,565.735 700.578,565.926 700.932,566.126C701.285,566.327 701.634,566.536 701.977,566.753C702.32,566.97 702.658,567.196 702.99,567.43C703.322,567.664 703.648,567.906 703.968,568.156C704.289,568.406 704.603,568.664 704.91,568.93C705.217,569.195 705.518,569.468 705.812,569.749C706.106,570.029 706.393,570.316 706.673,570.611C706.953,570.906 707.225,571.207 707.49,571.515C707.755,571.823 708.013,572.137 708.262,572.458C708.511,572.778 708.753,573.104 708.986,573.437C709.219,573.77 709.445,574.108 709.662,574.452C709.879,574.795 710.087,575.144 710.286,575.498C710.485,575.852 710.676,576.211 710.858,576.574C711.04,576.937 711.213,577.305 711.377,577.676C711.54,578.048 711.695,578.424 711.84,578.803C711.985,579.182 712.121,579.565 712.248,579.951C712.375,580.338 712.491,580.727 712.598,581.118C712.705,581.51 712.803,581.904 712.891,582.301C712.979,582.698 713.057,583.096 713.125,583.497C713.193,583.898 713.251,584.3 713.3,584.703C713.348,585.106 713.386,585.511 713.415,585.916C713.444,586.321 713.462,586.727 713.47,587.133C713.479,587.539 713.477,587.945 713.466,588.351C713.454,588.758 713.432,589.163 713.401,589.568C713.37,589.973 713.328,590.377 713.276,590.78C713.225,591.183 713.163,591.585 713.092,591.985C713.021,592.385 712.94,592.783 712.849,593.178C712.758,593.574 712.658,593.968 712.547,594.359C712.437,594.75 712.317,595.138 712.188,595.523C712.059,595.908 711.92,596.29 711.771,596.668C711.623,597.047 711.466,597.421 711.299,597.791C711.132,598.162 710.957,598.528 710.772,598.89C710.587,599.252 710.394,599.609 710.192,599.961C709.989,600.314 709.778,600.661 709.559,601.003C709.34,601.344 709.112,601.68 708.876,602.011C708.64,602.342 708.396,602.667 708.144,602.986C707.892,603.305 707.632,603.617 707.365,603.922C707.098,604.228 706.823,604.527 706.541,604.82C706.259,605.112 705.97,605.397 705.674,605.676C705.378,605.954 705.075,606.224 704.765,606.487C704.456,606.75 704.14,607.006 703.818,607.254C703.496,607.501 703.168,607.741 702.834,607.972C702.5,608.203 702.161,608.427 701.816,608.642C701.471,608.857 701.121,609.063 700.766,609.26C700.411,609.457 700.052,609.646 699.687,609.826C699.323,610.005 698.954,610.176 698.581,610.338C698.208,610.499 697.832,610.652 697.452,610.795C697.072,610.938 696.689,611.071 696.302,611.196C695.915,611.32 695.525,611.434 695.133,611.539C694.74,611.644 694.345,611.74 693.948,611.825C693.551,611.91 693.152,611.986 692.751,612.052C692.353,612.117 691.954,612.173 691.553,612.219C691.152,612.265 690.751,612.301 690.349,612.327C689.946,612.353 689.543,612.369 689.14,612.376C688.737,612.382 688.334,612.379 687.931,612.366C687.528,612.353 687.125,612.329 686.723,612.296C686.321,612.263 685.92,612.221 685.521,612.168C685.121,612.115 684.723,612.053 684.326,611.981C683.929,611.909 683.534,611.827 683.141,611.736C682.748,611.645 682.358,611.544 681.971,611.434C681.583,611.323 681.198,611.203 680.816,611.074C680.434,610.945 680.055,610.806 679.68,610.659C679.305,610.511 678.933,610.354 678.566,610.188C678.199,610.022 677.835,609.847 677.476,609.664C677.117,609.48 676.763,609.288 676.413,609.087C676.064,608.886 675.719,608.676 675.38,608.458C675.041,608.24 674.707,608.014 674.378,607.78C674.05,607.546 673.728,607.304 673.411,607.054C673.095,606.804 672.785,606.546 672.481,606.281C672.177,606.016 671.88,605.743 671.589,605.464C671.299,605.184 671.016,604.897 670.739,604.604C670.462,604.311 670.193,604.011 669.931,603.704C669.67,603.397 669.416,603.084 669.169,602.765C668.922,602.446 668.684,602.121 668.453,601.79C668.222,601.459 668,601.123 667.786,600.781C667.572,600.44 667.366,600.093 667.169,599.741C666.972,599.389 666.783,599.033 666.604,598.672C666.424,598.311 666.253,597.945 666.091,597.576C665.929,597.207 665.776,596.834 665.633,596.457C665.489,596.08 665.355,595.7 665.23,595.317C665.105,594.934 664.989,594.547 664.883,594.158C664.777,593.769 664.68,593.378 664.593,592.984C664.506,592.59 664.429,592.194 664.361,591.797C664.294,591.4 664.236,591.001 664.187,590.6C664.139,590.2 664.101,589.799 664.072,589.396C664.043,588.994 664.025,588.591 664.016,588.188C664.007,587.785 664.008,587.382 664.019,586.979C664.03,586.576 664.051,586.173 664.082,585.771C664.112,585.369 664.152,584.968 664.203,584.568C664.253,584.167 664.313,583.769 664.383,583.372C664.452,582.975 664.532,582.579 664.621,582.186C664.71,581.793 664.808,581.402 664.917,581.013C665.025,580.625 665.142,580.239 665.269,579.856C665.396,579.473 665.533,579.094 665.678,578.718C665.824,578.342 665.979,577.97 666.142,577.601C666.306,577.233 666.479,576.869 666.66,576.509C666.842,576.149 667.032,575.794 667.231,575.443C667.43,575.092 667.638,574.746 667.854,574.406C668.069,574.065 668.293,573.73 668.526,573.4C668.758,573.071 668.998,572.747 669.247,572.429C669.495,572.111 669.751,571.799 670.014,571.494C670.277,571.189 670.548,570.89 670.826,570.598C671.104,570.306 671.389,570.021 671.681,569.742C671.973,569.464 672.271,569.193 672.576,568.93C672.881,568.666 673.193,568.41 673.511,568.162C673.828,567.913 674.152,567.673 674.482,567.44C674.811,567.208 675.146,566.984 675.486,566.767C675.827,566.551 676.172,566.343 676.523,566.144C676.874,565.945 677.229,565.755 677.589,565.573C677.949,565.391 678.313,565.218 678.681,565.054C679.05,564.89 679.422,564.735 679.798,564.589C680.173,564.443 680.552,564.306 680.935,564.179C681.318,564.052 681.703,563.934 682.092,563.826C682.481,563.717 682.871,563.618 683.264,563.529C683.657,563.44 684.053,563.36 684.45,563.29ZM690.751,596.779C690.896,596.746 691.04,596.71 691.183,596.671C691.326,596.632 691.469,596.589 691.61,596.542C691.751,596.495 691.891,596.446 692.03,596.393C692.169,596.34 692.306,596.283 692.442,596.223C692.578,596.164 692.713,596.101 692.846,596.034C692.979,595.968 693.11,595.899 693.24,595.826C693.369,595.753 693.497,595.677 693.623,595.598C693.749,595.519 693.873,595.438 693.995,595.353C694.117,595.268 694.237,595.18 694.355,595.089C694.472,594.998 694.588,594.905 694.701,594.809C694.814,594.712 694.925,594.613 695.034,594.512C695.142,594.41 695.248,594.306 695.351,594.199C695.454,594.092 695.555,593.983 695.654,593.872C695.752,593.76 695.847,593.646 695.94,593.53C696.033,593.413 696.122,593.295 696.209,593.174C696.296,593.054 696.38,592.932 696.461,592.807C696.542,592.682 696.619,592.556 696.694,592.427C696.769,592.298 696.84,592.168 696.909,592.036C696.978,591.904 697.043,591.771 697.105,591.636C697.167,591.501 697.226,591.364 697.281,591.226C697.336,591.089 697.388,590.95 697.437,590.809C697.486,590.668 697.531,590.527 697.573,590.384C697.614,590.241 697.653,590.098 697.688,589.954C697.723,589.809 697.754,589.664 697.782,589.518C697.809,589.372 697.833,589.225 697.854,589.078C697.875,588.931 697.893,588.783 697.906,588.635C697.919,588.487 697.929,588.339 697.936,588.191C697.943,588.042 697.945,587.894 697.944,587.745C697.943,587.596 697.939,587.448 697.931,587.299C697.923,587.151 697.912,587.003 697.897,586.855C697.882,586.707 697.863,586.56 697.84,586.413C697.818,586.266 697.792,586.12 697.763,585.974C697.734,585.828 697.701,585.683 697.664,585.539C697.628,585.395 697.588,585.252 697.545,585.11C697.502,584.968 697.455,584.827 697.405,584.687C697.354,584.547 697.301,584.408 697.244,584.271C697.187,584.134 697.127,583.998 697.064,583.863C697.001,583.729 696.934,583.596 696.864,583.465C696.794,583.334 696.721,583.204 696.645,583.077C696.569,582.949 696.49,582.823 696.407,582.7C696.325,582.576 696.24,582.454 696.152,582.334C696.064,582.215 695.973,582.097 695.879,581.982C695.785,581.867 695.688,581.754 695.589,581.643C695.49,581.532 695.388,581.424 695.284,581.319C695.179,581.213 695.072,581.11 694.963,581.009C694.853,580.909 694.741,580.811 694.627,580.716C694.513,580.621 694.397,580.528 694.278,580.439C694.159,580.35 694.038,580.263 693.915,580.18C693.792,580.096 693.668,580.015 693.541,579.938C693.414,579.861 693.286,579.786 693.155,579.715C693.025,579.644 692.893,579.575 692.759,579.51C692.626,579.445 692.491,579.384 692.354,579.325C692.217,579.267 692.079,579.212 691.94,579.16C691.8,579.109 691.659,579.06 691.518,579.015C691.376,578.97 691.233,578.929 691.09,578.891C690.946,578.853 690.801,578.818 690.656,578.787C690.511,578.756 690.365,578.729 690.218,578.705C690.071,578.681 689.924,578.661 689.777,578.644C689.629,578.627 689.481,578.614 689.333,578.604C689.184,578.595 689.036,578.589 688.888,578.586C688.739,578.583 688.591,578.585 688.442,578.59C688.293,578.595 688.145,578.603 687.997,578.615C687.849,578.626 687.701,578.642 687.553,578.661C687.406,578.68 687.259,578.703 687.113,578.729C686.912,578.765 686.713,578.808 686.516,578.857C686.318,578.906 686.122,578.961 685.928,579.024C685.734,579.086 685.542,579.154 685.353,579.229C685.163,579.304 684.976,579.385 684.792,579.472C684.608,579.559 684.427,579.653 684.249,579.752C684.071,579.851 683.897,579.956 683.726,580.067C683.555,580.178 683.387,580.295 683.224,580.417C683.061,580.538 682.902,580.665 682.747,580.798C682.592,580.931 682.442,581.068 682.297,581.211C682.151,581.354 682.01,581.501 681.874,581.652C681.739,581.804 681.608,581.96 681.482,582.121C681.357,582.282 681.237,582.446 681.122,582.614C681.007,582.783 680.898,582.955 680.795,583.131C680.692,583.306 680.595,583.485 680.504,583.667C680.413,583.85 680.327,584.035 680.248,584.222C680.169,584.41 680.097,584.6 680.03,584.793C679.963,584.986 679.903,585.18 679.85,585.377C679.797,585.574 679.75,585.772 679.71,585.971C679.669,586.171 679.636,586.372 679.609,586.574C679.582,586.776 679.561,586.979 679.548,587.182C679.535,587.385 679.528,587.589 679.527,587.792C679.527,587.996 679.534,588.2 679.548,588.403C679.561,588.606 679.581,588.809 679.608,589.011C679.635,589.213 679.669,589.414 679.709,589.613C679.75,589.813 679.797,590.011 679.85,590.208C679.903,590.405 679.963,590.599 680.029,590.792C680.096,590.985 680.168,591.175 680.247,591.363C680.326,591.55 680.412,591.735 680.503,591.918C680.594,592.1 680.691,592.279 680.794,592.454C680.897,592.63 681.006,592.802 681.121,592.971C681.236,593.14 681.356,593.304 681.481,593.464C681.606,593.625 681.737,593.781 681.873,593.933C682.009,594.085 682.15,594.232 682.295,594.375C682.44,594.517 682.591,594.654 682.746,594.787C682.901,594.92 683.059,595.047 683.222,595.169C683.385,595.291 683.553,595.407 683.724,595.518C683.895,595.629 684.069,595.735 684.247,595.834C684.425,595.933 684.606,596.027 684.79,596.114C684.974,596.201 685.161,596.282 685.35,596.357C685.539,596.432 685.731,596.5 685.925,596.562C686.119,596.625 686.315,596.681 686.513,596.73C686.71,596.779 686.909,596.821 687.11,596.857C687.311,596.893 687.512,596.922 687.715,596.945C687.917,596.968 688.12,596.984 688.324,596.993C688.527,597.002 688.731,597.005 688.934,597C689.138,596.995 689.341,596.984 689.544,596.967C689.747,596.949 689.95,596.924 690.151,596.893C690.352,596.862 690.552,596.824 690.751,596.779Z" style="fill:currentColor;fill-rule:nonzero;"/>
        </g>
        <g transform="matrix(1.184,0,0,1.076,-97.8918,-30.385)">
            <path d="M701.743,679.233C702.359,679.16 702.976,679.102 703.594,679.059C704.213,679.016 704.832,678.989 705.452,678.976C706.071,678.963 706.691,678.966 707.311,678.984C707.931,679.002 708.55,679.035 709.168,679.083C709.786,679.131 710.402,679.194 711.017,679.273C711.632,679.352 712.245,679.445 712.855,679.554C713.466,679.663 714.073,679.786 714.677,679.924C715.282,680.063 715.882,680.216 716.479,680.384C717.076,680.552 717.668,680.734 718.256,680.931C718.844,681.128 719.427,681.339 720.004,681.565C720.582,681.79 721.154,682.03 721.719,682.283C722.285,682.537 722.844,682.804 723.397,683.085C723.95,683.366 724.495,683.661 725.033,683.969C725.571,684.276 726.101,684.597 726.624,684.931C727.146,685.265 727.66,685.611 728.166,685.97C728.671,686.329 729.168,686.701 729.655,687.084C730.142,687.467 730.619,687.862 731.087,688.269C731.555,688.676 732.013,689.094 732.46,689.523C732.907,689.952 733.344,690.392 733.769,690.843C734.195,691.294 734.61,691.755 735.013,692.226C735.416,692.697 735.807,693.177 736.187,693.668C736.566,694.158 736.933,694.657 737.288,695.165C737.643,695.674 737.986,696.19 738.315,696.715C738.645,697.24 738.962,697.773 739.265,698.314C739.568,698.855 739.858,699.402 740.135,699.957C740.412,700.512 740.675,701.073 740.924,701.641C741.173,702.208 741.408,702.782 741.629,703.361C741.85,703.94 742.056,704.525 742.249,705.114C742.441,705.703 742.619,706.297 742.782,706.896C742.945,707.494 743.093,708.096 743.227,708.701C743.36,709.306 743.479,709.915 743.583,710.526C743.687,711.137 743.776,711.751 743.849,712.366C743.922,712.981 743.981,713.598 744.025,714.217C744.068,714.836 744.096,715.455 744.109,716.075C744.122,716.694 744.12,717.314 744.102,717.934C744.085,718.554 744.052,719.173 744.005,719.791C743.957,720.409 743.894,721.026 743.816,721.641C743.738,722.256 743.645,722.868 743.536,723.479C743.428,724.09 743.305,724.697 743.167,725.301C743.029,725.906 742.876,726.506 742.709,727.103C742.542,727.7 742.36,728.293 742.163,728.881C741.967,729.469 741.756,730.052 741.531,730.629C741.306,731.207 741.066,731.779 740.813,732.345C740.56,732.911 740.294,733.47 740.013,734.023C739.732,734.576 739.438,735.121 739.131,735.66C738.824,736.199 738.503,736.729 738.169,737.252C737.836,737.775 737.49,738.289 737.131,738.794C736.772,739.3 736.402,739.797 736.019,740.284C735.636,740.771 735.241,741.249 734.834,741.717C734.428,742.186 734.01,742.644 733.581,743.091C733.152,743.539 732.713,743.976 732.262,744.402C731.812,744.828 731.351,745.243 730.88,745.646C730.409,746.049 729.929,746.441 729.439,746.821C728.949,747.201 728.45,747.569 727.942,747.924C727.434,748.279 726.918,748.622 726.393,748.952C725.868,749.282 725.336,749.599 724.795,749.903C724.255,750.207 723.708,750.497 723.153,750.774C722.598,751.051 722.037,751.315 721.469,751.564C720.902,751.813 720.328,752.049 719.749,752.27C719.17,752.491 718.586,752.698 717.997,752.891C717.408,753.084 716.814,753.263 716.216,753.426C715.618,753.589 715.016,753.738 714.411,753.872C713.806,754.006 713.197,754.125 712.586,754.23C711.975,754.334 711.361,754.423 710.746,754.497C710.13,754.571 709.512,754.63 708.893,754.674C708.274,754.718 707.655,754.747 707.034,754.76C706.414,754.773 705.794,754.771 705.173,754.754C704.553,754.737 703.933,754.705 703.314,754.657C702.695,754.61 702.078,754.547 701.463,754.469C700.847,754.392 700.234,754.299 699.623,754.191C699.012,754.083 698.403,753.96 697.798,753.822C697.193,753.684 696.592,753.531 695.995,753.364C695.397,753.197 694.804,753.015 694.215,752.818C693.626,752.622 693.043,752.411 692.465,752.186C691.886,751.961 691.314,751.721 690.748,751.468C690.181,751.215 689.621,750.948 689.068,750.667C688.515,750.386 687.968,750.092 687.429,749.785C686.89,749.477 686.359,749.156 685.836,748.823C685.313,748.489 684.798,748.143 684.292,747.784C683.785,747.425 683.288,747.053 682.801,746.67C682.313,746.287 681.835,745.892 681.366,745.485C680.897,745.078 680.439,744.659 679.991,744.23C679.543,743.801 679.106,743.361 678.679,742.91C678.253,742.459 677.838,741.998 677.434,741.527C677.03,741.056 676.638,740.575 676.258,740.084C675.878,739.593 675.51,739.094 675.155,738.585C674.799,738.077 674.456,737.56 674.126,737.034C673.796,736.509 673.479,735.976 673.175,735.435C672.871,734.894 672.58,734.345 672.303,733.79C672.026,733.235 671.763,732.673 671.513,732.105C671.264,731.537 671.028,730.963 670.807,730.383C670.586,729.803 670.379,729.218 670.186,728.629C669.994,728.039 669.816,727.445 669.653,726.846C669.489,726.247 669.34,725.645 669.207,725.039C669.073,724.433 668.954,723.824 668.85,723.212C668.747,722.6 668.658,721.986 668.584,721.37C668.51,720.754 668.451,720.136 668.408,719.517C668.365,718.898 668.337,718.279 668.324,717.658C668.311,717.037 668.314,716.417 668.331,715.797C668.348,715.176 668.381,714.557 668.429,713.938C668.477,713.319 668.54,712.702 668.619,712.087C668.697,711.471 668.79,710.858 668.899,710.247C669.007,709.636 669.13,709.028 669.269,708.423C669.407,707.818 669.56,707.216 669.728,706.619C669.895,706.022 670.078,705.429 670.275,704.84C670.472,704.252 670.683,703.669 670.909,703.09C671.134,702.512 671.374,701.94 671.628,701.374C671.881,700.807 672.149,700.247 672.43,699.694C672.711,699.141 673.006,698.596 673.314,698.057C673.622,697.518 673.943,696.987 674.277,696.464C674.611,695.941 674.958,695.427 675.317,694.921C675.676,694.415 676.048,693.918 676.432,693.43C676.816,692.943 677.212,692.465 677.619,691.996C678.026,691.528 678.444,691.07 678.874,690.622C679.304,690.175 679.744,689.738 680.195,689.312C680.646,688.886 681.108,688.471 681.58,688.068C682.051,687.665 682.532,687.273 683.023,686.893C683.514,686.513 684.014,686.146 684.523,685.791C685.032,685.436 685.549,685.093 686.074,684.763C686.6,684.433 687.134,684.116 687.675,683.813C688.216,683.51 688.765,683.22 689.32,682.943C689.875,682.666 690.437,682.403 691.006,682.154C691.574,681.905 692.148,681.67 692.728,681.449C693.308,681.228 693.893,681.022 694.483,680.83C695.073,680.638 695.668,680.46 696.267,680.297C696.866,680.134 697.468,679.986 698.074,679.853C698.68,679.72 699.289,679.601 699.901,679.498C700.513,679.395 701.127,679.306 701.743,679.233ZM709.892,740.194C716.378,738.18 721.384,734.968 724.696,728.809C728.008,722.65 728.574,715.775 726.476,709.129C724.688,703.465 720.967,698.546 715.626,695.829C711.515,693.737 707.34,693.297 702.805,693.536C695.551,696.378 689.888,699.588 686.525,707.079C683.75,713.262 683.837,720.426 686.427,726.657C688.72,732.173 692.921,736.554 698.504,738.763C702.185,740.22 705.974,740.678 709.892,740.194Z" style="fill:currentColor;fill-rule:nonzero;"/>
        </g>
        <g transform="matrix(1.184,0,0,1.076,-97.8918,-30.385)">
            <path d="M521.823,680.229C530.215,679.923 538.85,679.535 547.03,681.811C553,683.472 558.377,686.939 561.369,692.496C564.381,698.092 564.908,705.26 563.081,711.314C561.081,717.94 556.544,722.183 550.659,725.454C556.518,735.059 562.772,744.474 568.8,753.979C563.597,753.811 558.32,753.898 553.12,754.104C551.798,752.699 550.613,751.229 549.434,749.703C544.598,743.002 540.421,735.655 536.641,728.314L527.98,728.436L527.933,753.95C522.991,753.977 517.95,754.791 513.067,753.664C511.35,751.58 512.118,688.252 512.215,680.541L521.823,680.229ZM528.061,714.778C534.346,714.618 540.587,715.033 546.144,711.594C547.933,709.315 550.154,705.309 549.56,702.261C549.055,699.675 547.245,697.791 545.033,696.482C539.941,693.468 533.69,693.866 527.994,694.004C528.003,700.925 527.932,707.858 528.061,714.778Z" style="fill:currentColor;fill-rule:nonzero;"/>
        </g>
        <g transform="matrix(1.184,0,0,1.076,-97.8918,-30.385)">
            <path d="M224.437,680.208C233.879,679.994 243.621,679.337 252.933,681.255C259.547,682.617 265.684,685.444 269.422,691.346C272.87,696.788 273.716,703.887 272.242,710.102C270.493,717.473 265.93,721.866 259.743,725.705C264.974,735.248 271.773,743.97 277.115,753.492C271.838,753.55 265.3,754.294 260.197,753.232C254.114,746.153 249.443,736.627 245,728.409L236.696,728.556C236.948,736.947 237.079,745.401 236.72,753.79C231.543,753.943 226.369,753.755 221.19,753.949L221.035,710.494C221.014,700.635 220.747,690.705 221.166,680.855C222.15,680.171 223.257,680.303 224.437,680.208ZM237.01,714.47C243.381,714.53 249.802,715.027 255.295,711.16C257.073,708.436 258.911,705.204 258.252,701.813C257.82,699.592 256.217,697.885 254.335,696.747C249.1,693.583 242.776,694.007 236.916,693.977C236.914,700.799 236.787,707.652 237.01,714.47Z" style="fill:currentColor;fill-rule:nonzero;"/>
        </g>
        <g transform="matrix(1.184,0,0,1.076,-97.8918,-30.385)">
            <path d="M754.628,680.088C765.211,680.472 776.23,678.84 786.673,681.116C793.066,682.51 799.166,685.69 802.628,691.447C806.008,697.069 806.755,705.484 805.055,711.816C803.242,718.569 798.55,722.292 792.854,725.723C798.453,735.385 804.447,744.795 810.837,753.953C806.034,753.751 801.182,753.962 796.375,754.03L795.04,753.884C788.935,749.635 781.778,735.378 778.244,728.501L770.06,728.495C769.9,736.958 769.986,745.44 769.966,753.905C764.854,753.919 759.742,753.959 754.63,754.025C755.017,743.073 754.582,732.077 754.502,721.118C754.463,707.441 754.505,693.764 754.628,680.088ZM770.123,714.492C776.409,714.527 782.613,715.033 788.261,711.73C790.092,708.991 791.741,705.349 791.08,701.953C790.621,699.597 788.907,697.728 786.919,696.501C781.848,693.371 775.685,693.798 769.976,693.885C770.06,700.754 770.109,707.623 770.123,714.492Z" style="fill:currentColor;fill-rule:nonzero;"/>
        </g>
        <g transform="matrix(1.184,0,0,1.076,-97.8918,-30.385)">
            <path d="M320.013,680.467C323.836,680.797 327.827,680.583 331.67,680.594C335.321,684.433 338.581,688.832 341.89,692.972C350.515,703.765 358.717,714.966 367.474,725.632C366.551,710.729 367.164,695.53 367.312,680.598C372.552,680.521 377.802,680.611 383.042,680.631C382.705,687.927 382.98,695.344 382.983,702.652C383.069,719.723 383.027,736.793 382.857,753.863L371.015,753.9C365.211,747.324 359.947,740.009 354.532,733.102C347.996,724.766 341.159,716.522 334.981,707.926L335.019,753.638C330.047,753.628 324.946,753.378 320.013,754.065L320.013,680.467Z" style="fill:currentColor;fill-rule:nonzero;"/>
        </g>
        <g transform="matrix(1.184,0,0,1.076,-97.8918,-30.385)">
            <path d="M170.965,679.742C171.112,679.72 171.259,679.69 171.408,679.676C180.36,678.835 194.517,680.291 201.725,686.163C206.66,690.182 209.504,696.259 210.066,702.541C210.103,702.935 210.131,703.33 210.148,703.726C210.166,704.121 210.174,704.517 210.172,704.913C210.17,705.309 210.158,705.705 210.136,706.1C210.115,706.495 210.083,706.89 210.042,707.284C210.001,707.678 209.95,708.071 209.889,708.462C209.828,708.853 209.758,709.243 209.678,709.63C209.598,710.018 209.508,710.404 209.409,710.787C209.31,711.17 209.201,711.551 209.083,711.929C208.965,712.307 208.838,712.682 208.701,713.054C208.564,713.425 208.419,713.793 208.264,714.158C208.109,714.522 207.945,714.882 207.772,715.239C207.599,715.595 207.418,715.947 207.228,716.294C207.037,716.641 206.838,716.984 206.631,717.321C206.424,717.659 206.209,717.991 205.985,718.318C205.761,718.645 205.529,718.966 205.29,719.281C205.05,719.596 204.803,719.905 204.548,720.208C195.892,730.388 185.444,728.132 173.818,729.083L173.534,729.938L173.501,753.949C168.208,753.9 162.915,753.917 157.622,754C157.859,729.433 158.479,704.772 157.575,680.211C161.712,680.637 166.848,680.269 170.965,679.742ZM173.497,715.012C180.063,715.063 186.441,715.519 192.171,711.686C194.111,708.915 196.117,705.9 195.43,702.326C195.005,700.115 193.408,698.367 191.571,697.177C186.283,693.754 179.569,693.883 173.512,694.006C173.46,701 173.293,708.021 173.497,715.012Z" style="fill:currentColor;fill-rule:nonzero;"/>
        </g>
        <g transform="matrix(1.184,0,0,1.076,-97.8918,-30.385)">
            <path d="M821.001,680.406C835.903,681.145 851.118,680.558 866.047,680.583C865.719,685.322 865.944,690.209 865.928,694.965L836.98,694.971L836.926,710.427C845.433,710.524 853.939,710.555 862.446,710.521C862.051,714.841 862.05,719.631 862.396,723.951C853.887,724.125 845.355,724.003 836.844,724.005L836.889,728.375L836.943,739.55C847.178,739.654 857.34,739.983 867.58,739.657C867.45,744.428 867.525,749.217 867.515,753.989C852.179,753.882 836.284,753.159 821.009,754.239L821.001,680.406Z" style="fill:currentColor;fill-rule:nonzero;"/>
        </g>
        <g transform="matrix(1.184,0,0,1.076,-97.8918,-30.385)">
            <path d="M454.063,680.555C468.715,680.617 483.426,680.939 498.071,680.544L498.05,694.857L469.421,695.046L469.526,710.389C478.028,710.341 486.529,710.372 495.03,710.481L494.988,724.042C486.508,723.941 478.019,724.02 469.537,724.022L469.515,731.625L469.614,739.608C479.77,739.629 489.959,739.822 500.11,739.507C500.162,744.323 500.022,749.161 499.974,753.978C484.676,753.897 469.315,753.719 454.022,754.042L454.063,680.555Z" style="fill:currentColor;fill-rule:nonzero;"/>
        </g>
        <g transform="matrix(1.184,0,0,1.076,-97.8918,-30.385)">
            <path d="M631.466,679.173C634.199,678.868 637.157,678.843 639.902,679.022C650.08,679.687 657.796,684.865 664.364,692.352L653.797,702.045C648.75,697.494 643.261,693.429 636.133,693.349C630.343,693.283 624.724,695.795 620.714,699.936C616.081,704.72 613.856,711.105 613.941,717.711C614.023,724.039 616.143,730.27 620.881,734.629C625.099,738.511 631.204,740.619 636.918,740.375C644.117,740.068 649.497,736.171 654.095,731.01C657.521,731.673 663.036,737.894 665.739,740.413C660.196,747.823 651.212,753.114 642.091,754.569C632.383,756.119 621.626,754.254 613.607,748.393C605.767,742.664 600.88,734.038 599.397,724.49C597.746,713.866 599.399,702.153 605.931,693.379C612.243,684.9 621.206,680.686 631.466,679.173Z" style="fill:currentColor;fill-rule:nonzero;"/>
        </g>
        <g transform="matrix(1.184,0,0,1.076,-97.8918,-30.385)">
            <path d="M393.059,680.388C398.794,680.823 404.727,680.434 410.495,680.447C421.973,680.512 433.451,680.515 444.929,680.455L444.952,694.522L426.991,694.565L426.975,735.375L426.985,753.93C421.66,753.857 416.334,753.865 411.009,753.955L410.994,694.957C404.98,694.6 398.99,694.693 392.97,694.771L393.059,680.388Z" style="fill:currentColor;fill-rule:nonzero;"/>
        </g>
        <g transform="matrix(1.184,0,0,1.076,-97.8918,-30.385)">
            <path d="M322.99,782.673C325.863,782.931 328.858,782.79 331.747,782.796C336.669,789.555 342.108,795.988 347.247,802.588C351.832,808.479 356.168,814.562 360.855,820.372C359.876,808.028 361.177,795.258 360.737,782.824C364.161,782.926 367.602,782.863 371.028,782.869L371.074,819.035C371.084,825.223 371.52,831.803 370.87,837.936L362.038,837.928C351.641,826.805 341.937,813.845 333.037,801.495C332.904,813.618 333.014,825.755 333.008,837.879C329.528,837.715 326.118,837.543 322.642,837.854C323.611,819.52 322.576,801.035 322.99,782.673Z" style="fill:currentColor;fill-rule:nonzero;"/>
        </g>
        <g transform="matrix(1.184,0,0,1.076,-97.8918,-30.385)">
            <path d="M511.308,781.637C512.373,781.552 513.44,781.501 514.508,781.485C524.02,781.335 530.553,785.336 537.111,791.737C534.93,793.93 532.722,796.097 530.488,798.236C527.914,796.025 525.528,793.999 522.389,792.608C517.871,790.606 512.689,790.225 508.057,792.097C503.241,794.043 499.713,798.238 497.91,803.038C497.785,803.367 497.668,803.7 497.56,804.035C497.452,804.37 497.353,804.708 497.262,805.049C497.171,805.39 497.09,805.732 497.017,806.077C496.944,806.422 496.881,806.769 496.826,807.117C496.771,807.465 496.726,807.814 496.69,808.165C496.653,808.516 496.626,808.867 496.608,809.219C496.589,809.57 496.58,809.922 496.581,810.275C496.581,810.628 496.59,810.98 496.608,811.331C496.627,811.683 496.654,812.034 496.691,812.385C496.728,812.736 496.774,813.085 496.829,813.433C496.884,813.781 496.948,814.127 497.021,814.472C497.094,814.817 497.175,815.159 497.266,815.5C497.357,815.841 497.456,816.179 497.565,816.514C497.674,816.849 497.791,817.182 497.916,817.511C498.041,817.84 498.175,818.166 498.318,818.488C498.461,818.81 498.612,819.128 498.771,819.443C500.94,823.821 504.588,827.214 509.287,828.667C515.988,830.737 522.093,828.52 528.036,825.533L528.085,816.968C524.551,817.03 521.093,816.967 517.568,816.706C517.382,814.392 517.277,812.066 517.134,809.749C517.33,809.244 517.306,809.082 517.707,808.753C520.433,806.517 534.281,807.818 538.056,807.967C537.954,815.353 538.008,822.746 537.99,830.133C533.545,834.079 528.559,836.969 522.7,838.214C514.523,839.952 505.275,838.587 498.287,833.919C492.021,829.732 487.845,823.458 486.489,816.033C485.064,808.236 486.729,799.297 491.364,792.854C496.321,785.963 503.216,783.008 511.308,781.637Z" style="fill:currentColor;fill-rule:nonzero;"/>
        </g>
        <g transform="matrix(1.184,0,0,1.076,-97.8918,-30.385)">
            <path d="M571.152,782.782C571.461,782.806 571.692,783.086 571.954,783.251C572.078,790.768 572.017,798.295 572.03,805.813L597.763,805.893C597.96,798.193 597.78,790.46 597.635,782.759L608.014,782.936C607.584,801.146 607.978,819.453 607.982,837.674C604.694,837.808 601.372,837.7 598.08,837.683C596.493,834.467 597.455,819.653 597.498,815.025C589.027,814.761 580.513,814.929 572.04,815.017L571.987,837.952L561.658,837.984C561.873,819.6 561.862,801.216 561.625,782.833L571.152,782.782Z" style="fill:currentColor;fill-rule:nonzero;"/>
        </g>
        <g transform="matrix(1.184,0,0,1.076,-97.8918,-30.385)">
            <path d="M289.022,680.299C294.292,680.603 299.701,680.353 304.993,680.502C304.69,685.811 305.455,691.087 305.648,696.388C305.917,703.785 305.851,711.242 305.919,718.648C306.025,730.107 304.845,741.48 304.954,752.917L304.228,753.652C299.314,754.334 293.998,753.889 289.024,753.907L289.022,680.299Z" style="fill:currentColor;fill-rule:nonzero;"/>
        </g>
        <g transform="matrix(1.184,0,0,1.076,-97.8918,-30.385)">
            <path d="M703.527,781.646C713.955,780.914 718.97,784.347 726.444,790.667L718.532,796.509C714.899,793.017 711.222,790.647 705.961,790.877C703.512,790.983 701.591,791.789 699.935,793.639C698.981,794.705 697.983,796.234 698.276,797.746C699.334,803.213 716.269,807.554 720.921,810.946C724.141,813.294 726.459,816.524 727.014,820.528C727.522,824.193 726.649,829.222 724.337,832.189C720.549,837.051 714.087,838.335 708.325,838.964C705.988,838.791 703.566,838.671 701.265,838.232C694.579,836.957 689.819,832.922 685.986,827.567C688.707,825.667 691.418,823.887 694.312,822.262C695.404,823.624 696.569,824.988 697.917,826.105C701.025,828.678 704.88,829.925 708.887,829.417C711.518,829.084 715.031,827.802 716.414,825.317C717.004,824.258 717.143,823.324 716.671,822.172C714.388,816.597 701.893,814.236 696.878,811.39C692.801,809.077 689.316,805.618 688.204,800.931C687.271,796.994 688.236,792.351 690.455,788.989C693.47,784.42 698.383,782.574 703.527,781.646Z" style="fill:currentColor;fill-rule:nonzero;"/>
        </g>
        <g transform="matrix(1.184,0,0,1.076,-97.8918,-30.385)">
            <path d="M409.073,781.602C410.112,781.486 411.212,781.506 412.26,781.493C420.912,781.384 426.263,784.985 432.192,790.81C429.651,792.752 427.106,794.649 424.803,796.876C420.702,793.445 417.498,790.563 411.709,790.906C409.641,791.029 406.929,791.948 405.677,793.72C404.706,795.093 404.221,796.855 404.757,798.507C406.577,804.109 420.756,807.134 425.774,810.238C429.132,812.314 432.201,815.11 433.072,819.118C433.956,823.181 432.565,828.272 430.236,831.643C426.595,836.915 420.335,838.116 414.44,839.061C412.052,838.913 409.587,838.753 407.235,838.287C400.514,836.955 395.622,833.01 391.93,827.421L399.996,822.184C401.355,823.647 402.717,825.17 404.307,826.388C407.13,828.551 411.555,830.231 415.144,829.556C417.448,829.122 420.47,827.866 421.677,825.739C422.391,824.48 422.712,822.697 422.203,821.319C420.236,816 406.19,813.429 401.324,810.436C397.937,808.352 394.975,805.493 394.12,801.465C393.252,797.373 394.379,792.129 396.711,788.674C399.606,784.385 404.23,782.627 409.073,781.602Z" style="fill:currentColor;fill-rule:nonzero;"/>
        </g>
        <g transform="matrix(1.184,0,0,1.076,-97.8918,-30.385)">
            <path d="M629.07,782.606C642.011,783.796 657.884,782.946 671.018,782.527L671.029,791.981L655.458,792.036C655.259,802.731 655.156,813.428 655.149,824.125L655.032,837.874C651.745,837.609 648.314,837.581 645.032,837.909L644.965,792.016C639.684,791.979 634.404,791.981 629.123,792.023L629.07,782.606Z" style="fill:currentColor;fill-rule:nonzero;"/>
        </g>
        <g transform="matrix(1.184,0,0,1.076,-97.8918,-30.385)">
            <path d="M455.264,782.714C458.479,782.928 461.758,782.847 464.983,782.884C464.289,801.148 464.987,819.681 464.932,837.975L455.037,837.979C454.472,826.619 454.926,815.018 454.919,803.633C454.916,797.352 453.945,788.626 455.264,782.714Z" style="fill:currentColor;fill-rule:nonzero;"/>
        </g>
        <g transform="matrix(1.184,0,0,1.076,-97.8918,-30.385)">
            <path d="M287.929,782.981L297.978,782.857L297.911,838.042C294.612,837.835 291.284,837.837 287.979,837.764C288.12,819.545 288.467,801.189 287.929,782.981Z" style="fill:currentColor;fill-rule:nonzero;"/>
        </g>
    </g>
</svg>
